<?xml version="1.0" encoding="UTF-8"?><svg id="Layer_1" xmlns="http://www.w3.org/2000/svg" viewBox="0 0 568.758 82.863"><defs><style>.cls-1{fill:none;}</style></defs><path class="cls-1" d="M128.678,7.911v28.836h.609c7.421,0,11.557-4.503,11.557-13.871,0-10.101-4.013-14.847-12.167-14.966Z"/><polygon class="cls-1" points="255.412 15.699 248.839 55.364 262.105 55.364 255.655 15.699 255.412 15.699"/><path d="M9.311,41.266c0-17.412,13.13-32.612,33.899-32.612,9.549,0,18.981,2.783,27.572,7.541V6.797C61.593,2.733,52.282.527,43.093.527,18.621.527,0,17.938,0,41.497c0,19.732,14.685,40.271,42.85,40.271,10.03,0,19.457-2.088,28.53-6.615v-9.634c-8.713,5.339-18.145,8.127-28.287,8.127-20.769,0-33.783-14.624-33.783-32.38Z"/><polygon points="104.687 37.233 86.679 37.233 86.679 .485 78.649 .485 78.649 81.768 86.679 81.768 86.679 44.654 104.687 44.654 104.687 81.768 112.717 81.768 112.717 .485 104.687 .485 104.687 37.233"/><path d="M154.958,81.768l-4.622-18.74c-2.432-9.734-5.598-19.226-10.953-22.629,6.574-3.775,9.492-9.734,9.492-17.888,0-12.048-6.083-22.025-21.292-22.025h-6.935v81.283h8.03v-37.476h1.58c5.722,0,8.397,5.717,11.924,19.83l4.26,17.646h8.516ZM129.287,36.748h-.609V7.911c8.154.119,12.167,4.865,12.167,14.966,0,9.368-4.136,13.871-11.557,13.871Z"/><polygon points="177.736 .485 168.978 34.92 168.73 34.92 160.338 .485 152.06 .485 164.96 44.654 164.96 81.768 172.99 81.768 172.99 44.654 186.009 .485 177.736 .485"/><path d="M205.81,42.649c15.841,8.058,18.123,12.03,18.123,18.808,0,7.711-6,12.734-14.282,12.734-7.921,0-15.123-3.62-21.245-10.165v10.983c6.245,4.557,13.442,7.011,21.245,7.011,14.043,0,23.405-8.881,23.405-20.678,0-10.869-4.08-16.592-21.006-25.12-13.559-6.664-14.879-11.216-14.879-16.477,0-6.893,5.639-11.564,14.278-11.564,6.723,0,12.846,2.45,18.485,7.126V5.375c-5.521-3.387-11.883-5.142-18.24-5.142-13.686,0-23.644,8.415-23.644,19.745,0,10.165,4.92,16.244,17.761,22.671Z"/><path d="M251.395,0l-15.332,81.768h8.397l3.284-18.983h15.699l3.042,18.983h8.397L259.673,0h-8.278ZM248.839,55.364l6.574-39.665h.243l6.45,39.665h-13.266Z"/><polygon points="316.151 .485 308.731 .485 308.731 56.944 308.488 56.944 288.41 .485 280.807 .485 282.084 4.537 282.084 81.768 289.505 81.768 289.505 24.824 289.747 24.824 309.706 81.768 316.151 81.768 316.151 .485"/><polygon points="356.936 .485 323.597 .485 323.597 7.911 336.254 7.911 336.254 81.768 344.284 81.768 344.284 7.911 356.936 7.911 356.936 .485"/><polygon points="398.692 81.768 398.692 .485 390.662 .485 390.662 37.233 372.655 37.233 372.655 .485 364.625 .485 364.625 81.768 372.655 81.768 372.655 44.654 390.662 44.654 390.662 81.768 398.692 81.768"/><polygon points="434.608 74.347 414.659 74.347 414.659 43.198 432.299 43.198 432.299 35.653 414.659 35.653 414.659 7.911 433.756 7.911 433.756 .485 406.628 .485 406.628 81.768 434.608 81.768 434.608 74.347"/><polygon points="460.665 34.558 447.646 .485 440.959 .485 440.959 81.768 448.746 81.768 448.746 20.44 449.103 20.44 459.694 49.524 461.517 49.524 472.227 20.44 472.465 20.44 472.465 81.768 480.381 81.768 480.381 .485 473.565 .485 460.665 34.558"/><path d="M513.74,63.394c0,7.911-3.775,12.048-9.006,12.048-6.331,0-8.887-5.355-8.887-12.414V.485h-8.025v62.542c0,11.805,6.569,19.835,16.912,19.835,8.392,0,17.031-5.959,17.031-20.321V.485h-8.025v62.909Z"/><polygon points="561.941 .485 549.042 34.558 536.023 .485 529.335 .485 529.335 81.768 537.123 81.768 537.123 20.44 537.489 20.44 548.071 49.524 549.894 49.524 560.604 20.44 560.852 20.44 560.852 81.768 568.758 81.768 568.758 .485 561.941 .485"/></svg>