<?xml version="1.0" encoding="UTF-8"?>
<svg xmlns="http://www.w3.org/2000/svg" version="1.1" viewBox="0 0 211.281 210.521">
  <defs>
    <style>
      .cls-1 {
        fill: #ef9575;
      }
    </style>
  </defs>
  <!-- Generator: Adobe Illustrator 28.7.5, SVG Export Plug-In . SVG Version: 1.2.0 Build 176)  -->
  <g>
    <g id="Layer_1">
      <g>
        <path class="cls-1" d="M90.766,90.362c-3.619.809-7.431,1.69-11.261,2.482-.512.106-1.282-.062-1.654-.405-8.136-7.483-15.425-15.597-18.878-26.414-.437-1.368-.501-2.897-.505-4.352-.005-1.961,1.11-3.491,3.035-3.486,2.428.006,5.024.191,7.251,1.059,9.638,3.755,17.177,10.451,24.055,17.961.392.429.633,1.28.515,1.846-.8,3.833-1.715,7.642-2.558,11.307Z"/>
        <path class="cls-1" d="M120.489,90.338c-.831-3.674-1.756-7.566-2.549-11.483-.111-.546.267-1.367.683-1.817,6.43-6.975,13.449-13.244,22.238-17.108,2.371-1.043,5.037-1.644,7.623-1.905,2.869-.289,4.723,1.395,4.261,4.194-.584,3.537-1.566,7.16-3.17,10.348-3.855,7.663-9.553,13.978-15.881,19.713-.438.397-1.263.699-1.815.587-3.841-.782-7.658-1.684-11.39-2.527Z"/>
        <path class="cls-1" d="M120.491,119.94c3.679-.806,7.499-1.682,11.342-2.441.558-.11,1.389.157,1.82.55,6.89,6.273,13.031,13.183,16.971,21.719,1.176,2.548,1.828,5.446,2.153,8.249.34,2.941-1.473,4.803-4.373,4.289-3.46-.614-6.999-1.586-10.117-3.166-7.64-3.871-13.948-9.558-19.691-15.857-.429-.471-.668-1.409-.544-2.042.755-3.847,1.641-7.668,2.44-11.3Z"/>
        <path class="cls-1" d="M90.775,119.911c.817,3.608,1.715,7.421,2.51,11.256.121.582-.024,1.455-.401,1.868-7.036,7.703-14.762,14.532-24.7,18.271-1.971.742-4.238.954-6.367.947-2.177-.008-3.508-1.599-3.326-3.714.21-2.437.584-4.979,1.514-7.215,3.842-9.238,10.301-16.578,17.58-23.252.437-.401,1.278-.68,1.844-.57,3.847.748,7.671,1.615,11.345,2.409Z"/>
        <path class="cls-1" d="M61.472,130.731c-1.683,3.457-3.373,6.93-5.063,10.402-.034.07-.095.139-.098.21-.216,4.555-3.354,6.276-7.091,7.73-7.248,2.82-14.422,5.816-22.236,6.741-2.406.285-5.221.808-6.656-1.448-1.401-2.204.647-4.294,1.91-6.046,5.024-6.972,11.83-12.054,18.552-17.237,2.435-1.878,4.561-2.484,7.782-1.648,4.137,1.074,8.593.922,12.901,1.297Z"/>
        <path class="cls-1" d="M105.65,54.286c-2.138-3.237-3.778-6.874-6.441-9.457-3.259-3.161-4.1-6.293-3.363-10.644,1.377-8.129,2.181-16.382,6.048-23.83.78-1.502,2.471-3.493,3.752-3.501,1.276-.008,3.001,1.97,3.776,3.467,3.559,6.874,4.634,14.456,5.739,22.005.011.077.009.156.025.232,1.021,4.798.896,8.986-3.398,12.689-2.646,2.282-4.106,5.939-6.139,9.04Z"/>
        <path class="cls-1" d="M80.094,149.185c.388,4.467.218,8.845,1.291,12.895.9,3.397.112,5.661-1.839,8.185-4.664,6.034-9.273,12.106-15.246,16.942-1.437,1.164-3.022,2.212-4.682,3.019-2.867,1.395-4.697.43-4.642-2.776.06-3.462.317-7.071,1.367-10.334,2.184-6.785,4.93-13.39,7.507-20.045.222-.572.847-1.296,1.383-1.391,5.179-.911,9.599-3.49,13.996-6.147.247-.149.542-.221.864-.348Z"/>
        <path class="cls-1" d="M150.219,130.626c3.502-.254,7.44-.54,11.376-.829.232-.017.498-.003.687-.11,3.577-2.021,6.339-.301,8.942,1.977,5.198,4.55,10.51,8.984,15.476,13.776,1.889,1.822,3.122,4.411,4.34,6.811.862,1.699.072,3.261-1.916,3.335-2.839.105-5.763.159-8.526-.393-8.042-1.606-15.596-4.705-22.957-8.265-.57-.276-1.182-.818-1.416-1.384-2.061-4.985-4.041-10.003-6.007-14.917Z"/>
        <path class="cls-1" d="M105.741,155.841c1.319,2.227,2.493,4.4,3.856,6.447,1.117,1.678,2.236,3.477,3.757,4.734,2.263,1.871,2.742,3.974,2.359,6.732-1.2,8.636-2.125,17.327-5.814,25.377-.889,1.941-1.696,4.479-4.181,4.537-2.546.059-3.607-2.455-4.206-4.45-1.848-6.16-3.376-12.417-5.007-18.641-.176-.673-.192-1.387-.318-2.075-.91-4.937-1.411-9.46,3.285-13.371,2.681-2.233,4.109-5.97,6.269-9.288Z"/>
        <path class="cls-1" d="M54.398,104.793c-4.3,3.445-8.438,6.794-12.63,10.074-.481.376-1.282.559-1.905.503-8.759-.775-17.483-1.812-25.78-4.944-1.941-.733-3.845-1.723-5.538-2.918-2.17-1.532-2.279-3.343.013-4.62,3.356-1.87,6.915-3.706,10.618-4.55,6.645-1.515,13.455-2.317,20.211-3.317.798-.118,2.002.106,2.486.647,3.28,3.67,7.355,6.192,11.621,8.48.451.242.841.598.904.644Z"/>
        <path class="cls-1" d="M61.678,79.682c-4.02.265-7.809.514-11.596.767-.31.021-.674-.03-.919.113-3.887,2.258-6.621.012-9.528-2.216-6.12-4.691-12.184-9.424-16.884-15.627-.93-1.227-1.737-2.59-2.361-3.996-1.085-2.448-.38-4.068,2.229-4.012,4.063.086,8.28.308,12.128,1.475,6.367,1.932,12.504,4.634,18.703,7.098.7.278,1.552,1.03,1.701,1.703,1.117,5.019,3.413,9.48,6.161,13.753.157.244.217.549.368.943Z"/>
        <path class="cls-1" d="M156.803,104.813c1.951-1.167,4.315-2.481,6.57-3.962,1.487-.977,3.071-1.99,4.161-3.349,1.826-2.277,3.915-2.737,6.692-2.376,8.252,1.071,16.515,2.033,24.268,5.308,1.555.657,3.064,1.526,4.416,2.536,1.926,1.439,2.045,3.065.031,4.322-2.602,1.624-5.392,3.327-8.325,3.969-7.714,1.687-15.547,2.832-23.342,4.134-.512.086-1.212-.203-1.651-.542-4.27-3.3-8.503-6.648-12.82-10.04Z"/>
        <path class="cls-1" d="M80.29,61.145c-3.29-1.668-6.326-3.208-9.364-4.746-.278-.141-.56-.365-.848-.379-5.375-.253-7.359-4.035-8.747-8.408-2.065-6.507-4.19-12.998-6.078-19.557-.501-1.739-.433-3.721-.259-5.556.267-2.816,1.939-3.896,4.322-2.446,3.222,1.961,6.501,4.119,9.031,6.86,4.632,5.019,8.756,10.509,13.023,15.858.466.585.851,1.66.637,2.294-1.653,4.906-1.684,9.946-1.532,15.019.009.291-.099.586-.185,1.061Z"/>
        <path class="cls-1" d="M149.56,79.693c1.298-2.337,2.572-4.458,3.672-6.667.829-1.665,1.829-3.391,2.052-5.178.422-3.383,2.506-4.791,5.336-5.94,7.856-3.189,15.635-6.665,24.211-7.342,2.012-.159,4.856.072,5.986,1.325,1.615,1.789-.36,4.095-1.56,5.826-4.083,5.891-9.617,10.329-15.141,14.775-4.009,3.227-7.704,6.302-13.649,4.051-3.18-1.204-7.039-.613-10.906-.852Z"/>
        <path class="cls-1" d="M131.103,61.153c-.172-3.333-.278-6.496-.521-9.647-.119-1.54-.21-3.188-.819-4.562-.98-2.209-.379-3.856,1.049-5.496,5.097-5.854,10.07-11.821,15.331-17.522,1.58-1.712,3.847-2.897,5.98-3.961,2.427-1.211,4.239-.228,4.063,2.454-.294,4.461-.683,9.038-1.966,13.283-1.793,5.93-4.422,11.61-6.764,17.368-.256.629-.905,1.414-1.497,1.541-4.959,1.062-9.352,3.335-13.573,6.029-.361.23-.807.327-1.281.512Z"/>
        <path class="cls-1" d="M130.864,149.674c5.178,2.036,10.211,3.986,15.209,6.023.56.228,1.076.873,1.351,1.449,3.753,7.878,7.029,15.937,8.562,24.579.349,1.97.376,4.035.266,6.04-.154,2.811-1.721,3.812-4.26,2.593-2.008-.964-3.946-2.218-5.639-3.667-6.547-5.606-11.755-12.393-16.638-19.44-.329-.474-.697-1.228-.544-1.683,1.783-5.307,1.947-10.78,1.693-15.894Z"/>
        <path class="cls-1" d="M104.079,140.343c4.871.396,8.46-1.724,11.415-4.914,3.73,3.392,7.301,6.609,10.821,9.881.412.383.713,1.051.774,1.618.577,5.352.857,10.7-.712,15.958-.177.594-.358,1.192-.603,1.76-1.74,4.045-4.695,5.039-7.796,1.955-3.038-3.021-5.806-6.523-7.857-10.272-2.365-4.322-3.829-9.139-5.643-13.757-.24-.612-.243-1.317-.398-2.229Z"/>
        <path class="cls-1" d="M141.233,106.801q-2.004-7.669-5.327-11.678c.483-.516.977-1.07,1.498-1.597,1.312-1.324,2.986-2.432,3.898-3.988,4.576-7.798,11.847-6.53,18.918-5.777,1.964.209,3.967.876,5.753,1.744,3.066,1.492,3.692,3.961,1.608,6.685-1.488,1.945-3.291,3.758-5.267,5.199-6.34,4.623-13.521,7.442-21.081,9.411Z"/>
        <path class="cls-1" d="M95.82,74.923c-3.725-3.392-7.346-6.674-10.939-9.986-.315-.29-.599-.761-.644-1.175-.624-5.744-.926-11.484.918-17.09.312-.947.797-1.862,1.338-2.704,1.241-1.935,2.942-2.457,5.009-1.416,1.162.585,2.316,1.337,3.218,2.263,6.776,6.955,9.951,15.735,12.755,25.115-4.953-.25-8.743,1.59-11.655,4.993Z"/>
        <path class="cls-1" d="M70.623,103.289c-.589,5.089,1.446,8.702,4.834,11.738-2.982,3.188-5.974,6.116-8.623,9.327-1.497,1.815-3.08,2.633-5.368,2.486-4.094-.264-8.216-.238-12.286-.692-2.621-.293-5.462-1.139-6.407-3.95-.997-2.964,1.275-4.957,3.185-6.768,5.25-4.978,11.732-7.802,18.423-10.202,1.883-.676,3.823-1.192,6.242-1.937Z"/>
        <path class="cls-1" d="M95.679,135.523c2.803,1.893,5.175,4.154,5.533,7.933.121,1.283.58,2.618,1.203,3.754,1.567,2.853,1.159,5.444-.539,8.051-1.693,2.598-3.157,5.356-4.986,7.85-1.127,1.536-2.619,2.891-4.176,4.007-2.966,2.127-5.411,1.598-6.736-1.772-1.116-2.839-1.815-5.942-2.088-8.984-.282-3.141.146-6.349.332-9.524.028-.485.31-1.07.667-1.403,3.575-3.33,7.19-6.617,10.79-9.912Z"/>
        <path class="cls-1" d="M75.282,95.178c-1.909,2.987-4.319,5.067-7.907,5.551-1.216.164-2.509.475-3.549,1.088-2.997,1.767-5.756,1.333-8.447-.542-3.49-2.433-7.266-4.571-10.351-7.445-4.205-3.919-3.127-7.551,2.355-9.246,5.386-1.665,10.91-1.435,16.427-.877.569.058,1.241.361,1.627.773,3.286,3.508,6.518,7.068,9.844,10.697Z"/>
        <path class="cls-1" d="M115.672,74.738c-3.466-1.84-5.128-4.734-5.707-8.37-.133-.834-.341-1.722-.769-2.431-2.188-3.626-1.341-6.994.896-10.145,2.371-3.339,4.617-6.853,7.477-9.735,3.47-3.497,6.61-2.541,8.332,2.051,2.111,5.631,1.825,11.452,1.188,17.281-.056.507-.267,1.121-.623,1.453-3.576,3.33-7.197,6.612-10.793,9.897Z"/>
        <path class="cls-1" d="M136.078,115.201c1.873-3.421,4.71-5.164,8.358-5.736.91-.143,1.877-.386,2.651-.856,3.603-2.19,6.858-1.045,9.92,1.045,3.253,2.221,6.682,4.324,9.468,7.056,3.794,3.719,2.917,6.976-2.002,8.8-5.625,2.087-11.47,1.602-17.284,1.077-.484-.044-1.034-.398-1.378-.769-3.269-3.522-6.5-7.08-9.732-10.617Z"/>
        <path class="cls-1" d="M83.992,169.985c2.709.786,5.094,1.477,8,2.32.232,1.753.354,4.227.923,6.595.816,3.394.287,6.418-1.669,9.246-2.42,3.5-4.564,7.241-7.347,10.424-2.875,3.289-4.905,2.653-6.158-1.58-1.662-5.615-1.245-11.381-.853-17.122.025-.373.158-.794.38-1.088,2.331-3.082,4.69-6.143,6.724-8.795Z"/>
        <path class="cls-1" d="M156.915,59.81c-2.114-2.095-3.875-3.84-5.934-5.881,1.31-3.123,2.466-6.974,4.498-10.289,1.11-1.811,3.596-2.916,5.648-3.979,3.3-1.711,6.66-3.406,10.17-4.588,3.772-1.27,5.413.432,4.485,4.274-1.397,5.783-4.58,10.683-7.919,15.488-.214.309-.511.634-.844.774-3.501,1.48-7.018,2.924-10.104,4.201Z"/>
        <path class="cls-1" d="M119.276,172.29c2.91-.825,5.306-1.504,8.063-2.285,2.075,2.729,4.463,5.863,6.838,9.006.133.176.23.426.237.645.198,5.9.878,11.838-.943,17.618-1.224,3.884-3.044,4.313-6.015,1.437-4.216-4.082-6.828-9.22-9.29-14.441-.161-.34-.292-.761-.248-1.121.45-3.771.938-7.538,1.359-10.858Z"/>
        <path class="cls-1" d="M60.268,53.976c-2.006,2.002-3.762,3.754-5.884,5.871-3.106-1.324-6.896-2.675-10.395-4.564-1.344-.726-2.241-2.575-2.967-4.092-1.997-4.171-4.059-8.346-5.577-12.7-.947-2.716.468-4.255,3.273-3.558,3.491.867,6.784,2.527,10.162,3.847.071.028.124.1.195.126,7.246,2.597,8.97,9.253,11.192,15.071Z"/>
        <path class="cls-1" d="M127.348,40.295c-2.728-.725-5.133-1.365-8.049-2.14-.208-5.268-3.152-11.17,1.177-16.814,2.497-3.256,4.584-6.858,7.305-9.903,2.506-2.804,4.448-2.125,5.653,1.557,1.864,5.695,1.154,11.562,1.019,17.384-.008.364-.186.777-.409,1.074-2.322,3.096-4.67,6.173-6.696,8.841Z"/>
        <path class="cls-1" d="M92.018,38.185c-2.858.736-5.272,1.357-8.074,2.078-1.998-2.609-4.354-5.68-6.698-8.76-.135-.177-.219-.426-.241-.65-.605-6.14-.99-12.299.996-18.265,1.104-3.317,2.969-3.7,5.567-1.242,4.439,4.199,7.236,9.524,9.675,15.018.41.924-.077,2.266-.208,3.408-.336,2.923-.704,5.843-1.017,8.413Z"/>
        <path class="cls-1" d="M38.586,118.795c.79,2.896,1.444,5.295,2.196,8.054-2.657,2.031-5.723,4.397-8.824,6.716-.341.255-.885.354-1.329.339-5.342-.177-10.685-.365-16.024-.621-.746-.036-1.507-.383-2.202-.711-2.381-1.125-2.892-2.679-1.105-4.56,1.963-2.067,4.215-3.898,6.508-5.606,5.164-3.846,10.741-6.154,17.356-4.106,1.232.381,2.582.381,3.424.495Z"/>
        <path class="cls-1" d="M40.777,83.457c-.754,2.835-1.413,5.311-2.149,8.074-3.325.423-7.089.911-10.856,1.368-.369.045-.804-.013-1.136-.174-5.332-2.584-10.664-5.196-14.778-9.625-2.547-2.743-2.034-4.667,1.601-5.75,5.778-1.722,11.704-1.43,17.62-.935.296.025.626.139.861.316,3.088,2.333,6.161,4.685,8.837,6.726Z"/>
        <path class="cls-1" d="M156.945,150.506c3.062,1.287,6.628,2.779,10.184,4.294.27.115.524.359.694.606,3.411,4.929,6.668,9.948,8.043,15.896.767,3.319-.52,5.017-3.726,4.019-4.315-1.343-8.356-3.575-12.502-5.454-3.149-1.427-5.041-3.876-6.084-7.173-.721-2.278-1.827-4.434-2.621-6.314,1.956-1.911,3.776-3.69,6.012-5.874Z"/>
        <path class="cls-1" d="M54.438,150.503c2.062,2.066,3.869,3.875,5.889,5.898-1.257,2.989-2.706,6.479-4.208,9.945-.202.467-.601.96-1.041,1.196-4.704,2.529-9.431,5.015-14.166,7.487-.4.209-.89.272-1.348.338-3.811.553-4.935-.555-4.059-4.368,1.351-5.878,4.633-10.813,8.059-15.646.255-.36.681-.664,1.093-.836,3.363-1.405,6.741-2.773,9.78-4.015Z"/>
        <path class="cls-1" d="M170.534,126.854c.741-2.792,1.398-5.269,2.131-8.033,3.363-.433,7.118-.929,10.878-1.381.44-.053.989.005,1.351.231,4.603,2.868,9.183,5.774,13.76,8.684.253.161.432.443.636.677,2.67,3.065,2.214,5.013-1.656,6.045-5.713,1.523-11.545,1.427-17.377.77-.372-.042-.782-.177-1.076-.399-3.03-2.287-6.041-4.6-8.647-6.594Z"/>
        <path class="cls-1" d="M172.719,91.536c-.775-2.86-1.425-5.263-2.189-8.083,2.685-2.032,5.746-4.537,9.024-6.715.978-.65,2.558-.453,3.869-.533,5.144-.314,10.285-.337,15.209,1.457,2.601.948,3.124,2.606,1.409,4.655-4.208,5.027-9.926,7.875-15.762,10.502-.264.119-.618.104-.92.066-3.686-.458-7.37-.933-10.64-1.35Z"/>
        <path class="cls-1" d="M93.561,104.938c.06-6.711,5.579-12.024,12.37-11.909,6.586.112,11.911,5.624,11.834,12.249-.078,6.729-5.611,12.159-12.287,12.058-6.673-.101-11.977-5.62-11.917-12.399ZM111.963,105.186c.043-3.534-2.777-6.41-6.312-6.436-3.473-.026-6.364,2.878-6.367,6.398-.003,3.549,2.816,6.406,6.337,6.421,3.538.016,6.299-2.762,6.343-6.383Z"/>
        <path class="cls-1" d="M116.164,118.196c.902,5.815.149,11.559-4.522,16.167-3.583,3.534-8.504,3.463-12.076-.126-4.631-4.654-5.384-10.376-4.442-16.11,3.657.989,7.092,2.627,10.538,2.65,3.384.023,6.779-1.595,10.502-2.58Z"/>
        <path class="cls-1" d="M115.939,92.902c-6.932-4.557-13.639-4.809-20.534.138-1.254-5.252-.619-9.959,2.001-14.288,4.355-7.195,12.008-7.209,16.461-.05,2.652,4.264,3.186,8.921,2.072,14.201Z"/>
        <path class="cls-1" d="M122.948,94.384c4.767.144,9.025,1.539,12.285,5.199,2.881,3.235,3.009,7.553.223,10.851-3.975,4.707-9.295,5.95-15.151,5.391-2.11-.202-1.661-1.602-.951-2.909,2.19-4.029,2.614-8.242,1.268-12.618-.272-.885-.663-1.742-1.077-2.574-1.311-2.635-.979-3.211,2.004-3.337.465-.02.932-.003,1.399-.003Z"/>
        <path class="cls-1" d="M88.573,94.418c.398,0,1.021-.033,1.64.006,2.365.15,2.783.834,1.719,2.907-2.669,5.202-2.806,10.38-.036,15.604,1.106,2.085.712,2.843-1.653,2.982-5.064.297-9.768-.754-13.494-4.461-4.198-4.176-3.751-9.917.986-13.514,3.126-2.374,6.654-3.635,10.839-3.523Z"/>
      </g>
    </g>
  </g>
</svg>